<svg xmlns="http://www.w3.org/2000/svg" viewBox="0 0 640 360" width="640" height="360" role="img"
     aria-label="Schematic of a Markov transition matrix, P of i to j, used to map oncology patient journeys. ISPOR 2026. Illustration only; no data shown.">
<rect width="640" height="360" fill="#F3F2ED"/>
<text x="32" y="48" font-family="ui-monospace, SFMono-Regular, Menlo, Consolas, monospace" font-size="12" letter-spacing="1.1" fill="#5A6270">ONCOLOGY PATIENT JOURNEYS</text>
<text x="32" y="72" font-family="ui-monospace, SFMono-Regular, Menlo, Consolas, monospace" font-size="12" letter-spacing="1.1" fill="#8C9099">DATA-DRIVEN MARKOV TRANSITION MATRIX</text>
<line x1="32" y1="96" x2="608" y2="96" stroke="#DAD7CE" stroke-width="1"/>
<text x="32" y="182" font-family="ui-monospace, SFMono-Regular, Menlo, Consolas, monospace" font-size="44" fill="#14161A">P(i → j)</text>
<text x="32" y="212" font-family="ui-monospace, SFMono-Regular, Menlo, Consolas, monospace" font-size="11.5" letter-spacing="1.1" fill="#5A6270">STATE-TRANSITION PROBABILITIES</text>
<text x="32" y="234" font-family="ui-monospace, SFMono-Regular, Menlo, Consolas, monospace" font-size="11.5" letter-spacing="1.1" fill="#8C9099">ESTIMATED FROM LONGITUDINAL RECORDS</text>
<rect x="392" y="206" width="26" height="26" rx="2" fill="#2B4ACB" opacity="0.42"/>
<rect x="422" y="206" width="26" height="26" rx="2" fill="#2B4ACB" opacity="0.2"/>
<rect x="452" y="206" width="26" height="26" rx="2" fill="#2B4ACB" opacity="0.09"/>
<rect x="482" y="206" width="26" height="26" rx="2" fill="#2B4ACB" opacity="0.09"/>
<rect x="392" y="236" width="26" height="26" rx="2" fill="#2B4ACB" opacity="0.2"/>
<rect x="422" y="236" width="26" height="26" rx="2" fill="#2B4ACB" opacity="0.42"/>
<rect x="452" y="236" width="26" height="26" rx="2" fill="#2B4ACB" opacity="0.2"/>
<rect x="482" y="236" width="26" height="26" rx="2" fill="#2B4ACB" opacity="0.09"/>
<rect x="392" y="266" width="26" height="26" rx="2" fill="#2B4ACB" opacity="0.09"/>
<rect x="422" y="266" width="26" height="26" rx="2" fill="#2B4ACB" opacity="0.2"/>
<rect x="452" y="266" width="26" height="26" rx="2" fill="#2B4ACB" opacity="0.42"/>
<rect x="482" y="266" width="26" height="26" rx="2" fill="#2B4ACB" opacity="0.2"/>
<rect x="392" y="296" width="26" height="26" rx="2" fill="#2B4ACB" opacity="0.09"/>
<rect x="422" y="296" width="26" height="26" rx="2" fill="#2B4ACB" opacity="0.09"/>
<rect x="452" y="296" width="26" height="26" rx="2" fill="#2B4ACB" opacity="0.2"/>
<rect x="482" y="296" width="26" height="26" rx="2" fill="#2B4ACB" opacity="0.42"/>
<text x="392" y="196" font-family="ui-monospace, SFMono-Regular, Menlo, Consolas, monospace" font-size="10" letter-spacing="0.8" fill="#A9ADB4">SCHEMATIC</text>
<line x1="32" y1="292" x2="608" y2="292" stroke="#DAD7CE" stroke-width="1"/>
<text x="32" y="318" font-family="ui-monospace, SFMono-Regular, Menlo, Consolas, monospace" font-size="11.5" letter-spacing="0.4" fill="#5A6270">METHOD ILLUSTRATION · NOT DATA</text>
<text x="32" y="338" font-family="ui-monospace, SFMono-Regular, Menlo, Consolas, monospace" font-size="11.5" letter-spacing="0.4" fill="#8C9099">ISPOR 2026</text>
</svg>